<?xml version="1.0" ?><!DOCTYPE svg  PUBLIC '-//W3C//DTD SVG 1.1//EN'  'http://www.w3.org/Graphics/SVG/1.1/DTD/svg11.dtd'><svg height="512px" style="enable-background:new 0 0 512 512;" version="1.1" viewBox="0 0 512 512" width="512px" xml:space="preserve" xmlns="http://www.w3.org/2000/svg" xmlns:xlink="http://www.w3.org/1999/xlink"><g id="twitter__x2C__social__x2C__media__x2C__icons_x2C_"><g><path d="M425.619,86.28C382.172,42.97,322.258,16.004,255.965,16.004    c-66.297,0-126.212,26.966-169.65,70.276c-43.452,43.445-70.286,103.492-70.286,169.789c0,66.156,26.834,126.212,70.286,169.65    c43.438,43.311,103.353,70.276,169.65,70.276c66.293,0,126.207-26.966,169.654-70.276c43.443-43.438,70.277-103.494,70.277-169.65    C495.896,189.772,469.063,129.726,425.619,86.28z M412.332,412.438c-39.993,39.988-95.251,64.83-156.367,64.83    c-61.121,0-116.379-24.842-156.372-64.83c-40.117-39.989-64.831-95.389-64.831-156.368c0-61.113,24.714-116.514,64.831-156.502    c39.993-39.993,95.251-64.7,156.372-64.7c61.116,0,116.374,24.707,156.367,64.7c40.121,39.988,64.831,95.389,64.831,156.502    C477.163,317.049,452.453,372.448,412.332,412.438z" style="fill-rule:evenodd;clip-rule:evenodd;fill:#FFFFFF;"/><path d="M371.813,161.608c-9.7,5.711-20.593,9.83-32.015,12.088    c-9.048-9.693-22.188-15.675-36.805-15.675c-27.634,0-50.224,22.188-50.224,49.419c0,3.987,0.672,7.709,1.467,11.298    c-41.848-1.995-78.917-21.658-103.631-51.684c-4.25,7.44-6.904,15.812-6.904,24.845c0,17.271,9.88,32.415,23.163,41.186    c-8.233-0.133-16.865-2.395-21.865-6.113c0,0.267,0,0.399,0,0.664c0,6.377,0.35,12.225,2.602,17.802    c6.119,15.549,19.646,27.236,36.519,30.558c-4.391,1.197-8.853,1.855-13.5,1.855c-3.189,0-6.484-0.397-9.546-1.061    c6.516,19.666,24.927,34.013,46.854,34.543c-17.276,13.286-38.822,21.122-62.339,21.122c-4.126,0-7.985-0.265-12.102-0.662    c22.315,13.949,48.748,22.188,77.049,22.188c78.518,0,126.765-54.341,139.38-110.803c2.267-10.093,3.082-20.058,3.082-29.889    c0-2.127,0-4.382,0-6.378c10-7.041,18.574-15.812,25.219-25.642c-8.906,3.856-18.483,6.513-28.714,7.838    C360,182.866,368.085,173.298,371.813,161.608z" style="fill-rule:evenodd;clip-rule:evenodd;fill:#fff;"/></g></g><g id="Layer_1"/></svg>